# xmcd
#
# Track frame offsets:
#	150
#	18672
#	36465
#	51062
#	66140
#	82852
#	99907
#	121125
#	139337
#	156250
#	172270
#	189100
#	208235
#	223562
#	240897
#
# Disc length: 3456 seconds
#
# Revision: 2
# Processed by: cddbd v1.5.1PL0 Copyright (c) Steve Scherf et al.
# Submitted via: audiograbber 1.83.01
#
DISCID=cc0d7e0f
DTITLE=Gilbert Montagné - On va s'aimer
DYEAR=1999
DGENRE=Vocal
TTITLE0=On va s'aimer
TTITLE1=Le sunlight des tropiques
TTITLE2=Si je l'aime
TTITLE3=Liberté
TTITLE4=Toujours envie de te revoir
TTITLE5=Laissez les enfants réver
TTITLE6=L'amour fou
TTITLE7=Sans elle
TTITLE8=Feeling populaire
TTITLE9=Au nom d'un rêve
TTITLE10=Je veux tout
TTITLE11=Ascenseur pour les nuages
TTITLE12=Tes 15 ans, ton sourire
TTITLE13=Décoller
TTITLE14=Princess Africana
EXTD=
EXTT0=
EXTT1=
EXTT2=
EXTT3=
EXTT4=
EXTT5=
EXTT6=
EXTT7=
EXTT8=
EXTT9=
EXTT10=
EXTT11=
EXTT12=
EXTT13=
EXTT14=
PLAYORDER=
